# xmcd
#
# Track frame offsets:
#	150
#	13933
#	28024
#	39795
#	63723
#	83141
#	102110
#	120478
#	137590
#	152204
#	168513
#	184649
#	203205
#	218603
#	245950
#	261906
#
# Disc length: 3700 seconds
#
# Revision: 1
# Processed by: cddbd v1.5.1PL2 Copyright (c) Steve Scherf et al.
# Submitted via: audiograbber 1.83.01
#
DISCID=dd0e7210
DTITLE=Dáridó - Szervusz itt a dáridó
DYEAR=1900
DGENRE=Pop-Folk
TTITLE0=Szervusz itt a dáridó
TTITLE1=Link
TTITLE2=Késõ üzenet
TTITLE3=Ne mondj le rólam
TTITLE4=Lennt a délibábos
TTITLE5=Mindíg szép az élet
TTITLE6=Kislány vigyázz
TTITLE7=Trombita szóló
TTITLE8=Ugye gondolsz néha rám
TTITLE9=Ki megpróbál szeretni
TTITLE10=Bocsásd meg kérlek
TTITLE11=Vége a zenének
TTITLE12=Bocsássa meg nekem a világ
TTITLE13=Jóska levelet hozott ..
TTITLE14=Kicsiny falum
TTITLE15=Se veled se nélküled
EXTD=
EXTT0=
EXTT1=
EXTT2=
EXTT3=
EXTT4=
EXTT5=
EXTT6=
EXTT7=
EXTT8=
EXTT9=
EXTT10=
EXTT11=
EXTT12=
EXTT13=
EXTT14=
EXTT15=
PLAYORDER=
